# xmcd CD database file
#
# Track frame offsets:
#	150
#	19570
#	39460
#	64319
#	84026
#	102754
#	120165
#	142306
#	163361
#	180485
#	200613
#	221207
#
# Disc length: 3366 seconds
#
# Revision: 2
# Processed by: cddbd v1.5.2PL0 Copyright (c) Steve Scherf et al.
# Submitted via: CDex 1.70beta3
#
DISCID=a50d240c
DTITLE=SHOGUN - SHOGUN 2002
DYEAR=2001
DGENRE=J-Rock
TTITLE0=Whatcha gonna do
TTITLE1=Starange World
TTITLE2=Face On The Line
TTITLE3=遠い日々
TTITLE4=Fly away
TTITLE5=Bad City 2002
TTITLE6=Sunset
TTITLE7=My Latain Love
TTITLE8=Because of the Music
TTITLE9=Somebody to Love
TTITLE10=Souoth of Border (Inst)
TTITLE11=Bad City 2002 Remix
EXTD=YEAR: 2001
EXTT0=
EXTT1=
EXTT2=
EXTT3=
EXTT4=
EXTT5=
EXTT6=
EXTT7=
EXTT8=
EXTT9=
EXTT10=
EXTT11=
PLAYORDER=
